<svg xmlns="http://www.w3.org/2000/svg" xmlns:xlink="http://www.w3.org/1999/xlink" viewBox="0 0 150 150"> <path fill-rule="nonzero" fill="currentColor" fill-opacity="1" d="M 84.75 78.375 L 83.925781 76.648438 L 83.023438 75 L 81.976562 73.351562 L 80.851562 71.699219 L 79.648438 70.050781 L 78.300781 68.476562 L 78.300781 136.5 L 69.300781 141 L 69.300781 75.8125 L 67.425781 81.375 L 64.949219 87.75 L 62.324219 93.976562 L 59.398438 100.050781 L 56.175781 105.75 L 52.648438 111.300781 L 51.449219 110.625 L 55.648438 98.476562 L 57.675781 92.25 L 59.625 85.949219 L 61.351562 79.425781 L 62.925781 72.898438 L 64.425781 66.148438 L 65.699219 59.25 L 66.75 52.199219 L 67.382812 47.25 L 52.050781 47.25 L 52.050781 44.25 L 69.300781 44.25 L 69.300781 10.5 L 78.300781 12 L 80.550781 13.5 L 78.300781 14.851562 L 78.300781 44.25 L 80.261719 44.25 L 86.398438 37.5 L 93.898438 44.25 L 93.898438 47.25 L 78.300781 47.25 L 78.300781 65.316406 L 80.101562 66 L 82.125 66.976562 L 84.148438 68.101562 L 86.023438 69.375 L 87.824219 70.800781 L 89.550781 72.300781 L 91.125 73.949219 L 92.699219 75.75 L 94.125 77.625 L 94.351562 81 L 92.25 83.699219 L 88.800781 84 L 86.175781 81.824219 L 85.5 80.101562 Z M 50.851562 54.75 L 50.851562 57.75 L 35.925781 57.75 L 35.925781 83.25 L 39.6875 83.25 L 45.824219 76.5 L 53.324219 83.25 L 53.324219 86.25 L 35.925781 86.25 L 35.925781 116.996094 L 36.074219 116.851562 L 38.324219 114.824219 L 42.976562 110.476562 L 45.523438 108.300781 L 48.148438 106.125 L 50.851562 103.800781 L 51.824219 104.625 L 48.226562 110.625 L 46.425781 113.476562 L 44.699219 116.175781 L 42.898438 118.726562 L 41.175781 121.273438 L 39.523438 123.675781 L 37.875 126 L 36.300781 128.25 L 35.828125 128.933594 L 35.925781 129 L 35.464844 129.457031 L 34.800781 130.425781 L 34.640625 130.285156 L 29.925781 135 L 22.425781 127.5 L 26.925781 123 L 26.925781 86.25 L 10.425781 86.25 L 10.425781 83.25 L 26.925781 83.25 L 26.925781 57.75 L 19.949219 57.75 L 19.949219 54.75 L 37.214844 54.75 L 43.351562 48 Z M 83.476562 125.25 L 108 125.25 L 108 62.25 L 87.824219 62.25 L 87.824219 59.25 L 108 59.25 L 108 12 L 117 13.5 L 119.25 15 L 117 16.351562 L 117 59.25 L 120.601562 59.25 L 128.101562 51.75 L 137.101562 59.25 L 137.101562 62.25 L 117 62.25 L 117 125.25 L 125.023438 125.25 L 132.523438 117.75 L 141.523438 125.25 L 141.523438 128.25 L 83.476562 128.25 Z M 34.648438 12.976562 L 36.449219 14.925781 L 33.859375 15.773438 L 32.851562 19.351562 L 30.898438 25.648438 L 28.875 31.800781 L 28.710938 32.25 L 39.238281 32.25 L 45.375 25.5 L 52.875 32.25 L 52.875 35.25 L 27.625 35.25 L 26.699219 37.800781 L 24.375 43.574219 L 21.898438 49.273438 L 19.273438 54.75 L 16.425781 60.074219 L 13.351562 65.175781 L 10.050781 70.050781 L 8.851562 69.375 L 12.75 58.425781 L 14.699219 52.875 L 16.574219 47.175781 L 18.375 41.476562 L 20.101562 35.550781 L 21.675781 29.625 L 23.175781 23.476562 L 24.601562 17.324219 L 25.722656 11.710938 L 25.648438 11.699219 L 26.175781 9.601562 Z M 34.648438 12.976562 "/> </svg>